<svg id="Capa_1" data-name="Capa 1" xmlns="http://www.w3.org/2000/svg" viewBox="0 0 299.78 49.29"><defs><style>.cls-1{font-size:39.89px;font-family:Magneto-Bold, Magneto;font-weight:700;}.cls-1,.cls-2{stroke:#fff;stroke-miterlimit:10;}</style></defs><title>Logo Solo letras</title><text class="cls-1" transform="translate(0.61 34.15) rotate(0.49)"><tspan xml:space="preserve">C   nstrument</tspan></text><path class="cls-2" d="M52.56,44.33,50.48,43a4.81,4.81,0,0,0-.58-.58q-2-1.46-4.1-2.9c-3.42-2.38-6.84-4.78-10.28-7.13a1.6,1.6,0,0,1-.91-1.71c.35-3.9.55-7.82.79-11.73.17-2.86.3-5.73.44-8.59l.39-.59,7.71-3.68,7.94-3.78L55.23.67c1.68,1.2,3.26,2.36,4.86,3.49s3.42,2.39,5.13,3.57l5.59,3.86c.46.32.92.64,1.4.92a1.77,1.77,0,0,1,.95,1.94c-.15,1.23-.21,2.47-.29,3.7-.26,3.85-.53,7.7-.76,11.55-.1,1.68-.12,3.37-.18,5.06l-.29.45c-1.17.53-2.35,1-3.51,1.58q-4.53,2.16-9,4.36Zm7.11-31.77A11.15,11.15,0,1,0,47.49,31.25,11.43,11.43,0,0,0,63,28.06C66.26,23.26,64.89,15.52,59.66,12.57Z" transform="translate(0.5 0.5)"/></svg>