<svg id="Capa_1" data-name="Capa 1" xmlns="http://www.w3.org/2000/svg" viewBox="0 0 531.48 532.44"><defs><style>.cls-1,.cls-3{stroke:#fff;stroke-miterlimit:10;}.cls-1{stroke-width:3px;}.cls-2,.cls-3,.cls-4{fill:#fff;}.cls-3{stroke-width:0.5px;}.cls-4{font-size:55px;font-family:Magneto-Bold, Magneto;font-weight:700;}</style></defs><title>Logo_Menu2</title><path class="cls-1" d="M1.5,402.3c.31-1.88.72-3.74.92-5.63,3-28.1,14.85-51.72,36.24-70.27,11.45-9.93,25.06-15.83,39.66-19.54,8.38-2.13,17-3.16,25.51-4.35,5.94-.83,11.91-1.46,17.8-2.5,12.36-2.18,20.81-9.31,25.39-20.95,1.75-4.46,3.09-9.08,4.77-13.56,1.74-4.64,3.7-9.19,5.51-13.8,4.66-11.85,13.42-19.15,25.32-23.1s23.74-3.67,35.65-.32c2.69.76,5.35,1.63,8,2.43,1.15.34,2.29.72,3.46,1,2,.43,3.13-.09,4.15-1.94.46-.83.82-1.7,1.37-2.86l5.87,3.57c-.62.67-1.11,1.15-1.55,1.68a3.64,3.64,0,0,0,.08,5.37,7.65,7.65,0,0,0,1.05,1q6.29,4.81,12.59,9.6a5.28,5.28,0,0,0,.85.39c.65-.57,1.38-1.17,2.05-1.82,17.85-17.08,35.77-34.1,53.53-51.28q53.21-51.44,106.3-103,20.6-19.94,41.42-39.65a4.36,4.36,0,0,0,1.38-5c-4-14.38-.22-26.68,10.41-36.94A32.18,32.18,0,0,1,487.83,2c.78-.11,1.54-.35,2.31-.52h5.76a4.19,4.19,0,0,0,1.11.39c4.53.26,8.71,2,13,3.15.2.05.35.28.66.54-.78.55-1.47,1.06-2.2,1.54-6.87,4.54-13.71,9.13-20.64,13.59a4.12,4.12,0,0,0-2.16,4.13c.28,5.19.45,10.39.55,15.58a3.09,3.09,0,0,0,2.1,3.1c4.66,2.1,9.31,4.24,13.91,6.49a4.15,4.15,0,0,0,4.66-.33c6.55-4.44,13.17-8.78,19.77-13.16.79-.52,1.59-1,2.71-1.72a23.12,23.12,0,0,1,.49,2.51,30.39,30.39,0,0,1-9.6,25.34c-6.15,5.91-13.31,9.93-21.89,11a34.37,34.37,0,0,1-14.26-.91,4.19,4.19,0,0,0-4.53,1.13c-10.51,9.84-20.42,20.28-30.39,30.65q-75,77.88-149.88,155.79Q279.77,280.67,260.25,301a43.63,43.63,0,0,0-4.15,5c-8.27,11.71.52,24.5,11,26.28,6.93,1.18,13.69.22,20.37-1.67,1-.28,2-.62,3-.84,7.33-1.59,13.41,2.91,13.78,10.4a23.93,23.93,0,0,1-.73,6.87,32.59,32.59,0,0,1-15.05,20.56,84.93,84.93,0,0,1-12,5.87c-8.72,3.6-17.58,6.84-26.29,10.44-10.61,4.38-15.66,12.83-16.26,23.93a63.24,63.24,0,0,1-2,12.45c-1.54,6-2.55,12.19-3.84,18.29-1.66,7.81-3.21,15.66-5.13,23.41-5.44,22-18.33,38.43-37.71,49.85-5.71,3.37-11.69,6.26-17.57,9.34-3.47,1.82-7,3.51-10.45,5.37a33.69,33.69,0,0,1-12.23,4,6.62,6.62,0,0,0-1.33.44H130.14c-2.45-.18-4.89-.51-7.34-.52a85.35,85.35,0,0,1-27.28-4.61A129.31,129.31,0,0,1,69.1,512.9c-.85-.53-1.73-1-2.72-1.59l-1.74,4.6-7.81-6.12,2.67-2.21L24.56,472.22l-2.31,2.49-5.59-7.6L21,465.73a11.22,11.22,0,0,0-.49-1.4c-.37-.7-.77-1.4-1.21-2.06a101,101,0,0,1-16.93-49c-.12-1.73-.57-3.44-.87-5.17Q1.5,405.18,1.5,402.3Z"/><path class="cls-2" d="M121.86,494.69l-.29,1.11a2.22,2.22,0,0,0-.17.34q-.34,1.11-.67,2.22c-.55,1.84-1.1,3.69-1.63,5.54-.1.34-.19.55-.62.65-1.76.41-3.5.89-5.25,1.36-1.28.34-2.55.7-3.82,1.05l-.32-.08L106.36,504l-2.81-2.93-1.19-1.24c.28-.91.56-1.77.82-2.63s.55-1.84.82-2.76l.88-3c.07-.25.15-.5.2-.75a.82.82,0,0,1,.71-.7c.56-.11,1.11-.27,1.66-.41,1.72-.45,3.45-.89,5.16-1.34.75-.2,1.49-.44,2.24-.66l.24.06c.4.44.79.88,1.2,1.31l3.22,3.33Zm-14.94,1.5a5.14,5.14,0,1,0,9.94,2.61,5.27,5.27,0,0,0-3.65-6.34A5.21,5.21,0,0,0,106.93,496.19Z"/><path class="cls-2" d="M149.14,503l-.31,1.1a2.22,2.22,0,0,0-.18.34q-.36,1.1-.71,2.2c-.58,1.84-1.16,3.67-1.72,5.51-.1.34-.2.55-.63.64-1.77.38-3.52.83-5.27,1.27-1.28.32-2.56.66-3.84,1l-.31-.09-2.68-2.88-2.76-3-1.17-1.26c.3-.9.59-1.76.87-2.62s.58-1.83.86-2.75l.93-3c.08-.25.16-.49.21-.75a.82.82,0,0,1,.72-.68c.56-.1,1.11-.25,1.67-.38,1.73-.42,3.46-.83,5.19-1.26.76-.19,1.5-.41,2.25-.62l.24.07c.39.44.78.89,1.18,1.33l3.17,3.38Zm-15,1.26a5.14,5.14,0,1,0,9.9,2.78,5.27,5.27,0,0,0-3.54-6.4A5.21,5.21,0,0,0,134.18,504.24Z"/><path class="cls-2" d="M146.11,473.56v1.14a2.22,2.22,0,0,0-.08.37q-.05,1.16-.08,2.31c-.06,1.92-.12,3.85-.16,5.77a.74.74,0,0,1-.43.79c-1.6.85-3.16,1.76-4.73,2.66-1.15.66-2.29,1.33-3.43,2h-.33l-3.37-2-3.46-2.11-1.47-.9c0-1,.09-1.85.12-2.76s.06-1.92.08-2.88.05-2.09.08-3.13c0-.26,0-.52,0-.78a.82.82,0,0,1,.51-.86c.51-.25,1-.54,1.5-.82,1.55-.87,3.1-1.74,4.65-2.62.68-.39,1.33-.8,2-1.21h.25c.5.32,1,.65,1.5,1l4,2.39Zm-14.06,5.27a5.14,5.14,0,1,0,10.28,0,5.27,5.27,0,0,0-5.15-5.19A5.21,5.21,0,0,0,132.06,478.83Z"/><path class="cls-2" d="M172.38,483.74v1.14a2.22,2.22,0,0,0-.08.37q-.05,1.16-.08,2.31c-.06,1.92-.12,3.85-.16,5.77a.74.74,0,0,1-.43.79c-1.6.85-3.16,1.76-4.73,2.66-1.15.66-2.29,1.33-3.43,2h-.33l-3.37-2-3.46-2.11-1.47-.9c0-1,.09-1.85.12-2.76s.06-1.92.08-2.88.05-2.09.08-3.13c0-.26,0-.52,0-.78a.82.82,0,0,1,.51-.86c.51-.25,1-.54,1.5-.82,1.55-.87,3.1-1.74,4.65-2.62.68-.39,1.33-.8,2-1.21H164c.5.32,1,.65,1.5,1l4,2.39ZM158.32,489a5.14,5.14,0,1,0,10.28,0,5.27,5.27,0,0,0-5.15-5.19A5.21,5.21,0,0,0,158.32,489Z"/><rect class="cls-3" x="453.69" y="62.25" width="23.83" height="6.71" transform="translate(163.9 -295.04) rotate(42.07)"/><rect class="cls-2" x="63.5" y="413.18" width="77.73" height="26.5" transform="translate(312.07 41.27) rotate(42.07)"/><path class="cls-2" d="M208,347.21l-1.1,3.88a7.81,7.81,0,0,0-.63,1.18q-1.28,3.88-2.51,7.77c-2,6.47-4.09,12.93-6.08,19.41-.37,1.21-.72,1.93-2.22,2.25-6.23,1.35-12.4,2.93-18.58,4.47-4.52,1.13-9,2.32-13.54,3.48l-1.11-.31-9.45-10.17-9.71-10.49L139,364.24c1.06-3.18,2.08-6.2,3.06-9.24,1-3.22,2-6.46,3.05-9.69q1.65-5.27,3.28-10.54c.27-.87.55-1.74.75-2.63a2.87,2.87,0,0,1,2.55-2.41c2-.36,3.93-.87,5.88-1.34,6.1-1.46,12.2-2.92,18.28-4.43,2.66-.66,5.29-1.45,7.94-2.18l.83.24c1.38,1.56,2.74,3.15,4.16,4.68q5.55,6,11.15,11.92Q204,342.92,208,347.21Zm-52.73,4.38a18.12,18.12,0,1,0,34.89,9.82c2.83-9.36-3.11-19.77-12.47-22.55C168.69,336.17,157.36,342,155.3,351.59Z"/><text class="cls-4" transform="matrix(0.71, -0.71, 0.71, 0.71, 123.84, 424.42)"><tspan xml:space="preserve">C    nstrument</tspan></text></svg>